<svg width="117" height="77" viewBox="0 0 117 77" fill="none" xmlns="http://www.w3.org/2000/svg">
<rect x="40.6667" y="1" width="35.3333" height="35.3333" rx="7" fill="#CCCCCC" stroke="#8E1D1D" stroke-width="2"/>
<path d="M53.3435 23.3333L50.4302 13.1515H52.7817L54.4671 20.2261H54.5516L56.411 13.1515H58.4245L60.2789 20.241H60.3684L62.0537 13.1515H64.4053L61.492 23.3333H59.3939L57.455 16.6764H57.3755L55.4415 23.3333H53.3435Z" fill="#8E1D1D"/>
<rect x="1" y="40.6667" width="35.3333" height="35.3333" rx="7" fill="#CCCCCC" stroke="#8E1D1D" stroke-width="2"/>
<path d="M15.4733 63H13.1664L16.6813 52.8182H19.4555L22.9654 63H20.6586L18.1082 55.1449H18.0286L15.4733 63ZM15.3291 58.9979H20.7779V60.6783H15.3291V58.9979Z" fill="#8E1D1D"/>
<rect x="40.6667" y="40.6667" width="35.3333" height="35.3333" rx="7" fill="#CCCCCC" stroke="#8E1D1D" stroke-width="2"/>
<path d="M60.075 55.7464C60.0353 55.3454 59.8646 55.0339 59.563 54.8118C59.2614 54.5897 58.852 54.4787 58.335 54.4787C57.9837 54.4787 57.687 54.5284 57.4451 54.6278C57.2031 54.724 57.0175 54.8582 56.8883 55.0305C56.7623 55.2029 56.6993 55.3984 56.6993 55.6172C56.6927 55.7995 56.7308 55.9586 56.8137 56.0945C56.8999 56.2304 57.0175 56.348 57.1667 56.4474C57.3158 56.5436 57.4882 56.6281 57.6837 56.701C57.8793 56.7706 58.0881 56.8303 58.3101 56.88L59.2249 57.0987C59.669 57.1982 60.0767 57.3307 60.4479 57.4964C60.8191 57.6622 61.1406 57.866 61.4124 58.108C61.6842 58.3499 61.8947 58.6349 62.0438 58.9631C62.1963 59.2912 62.2741 59.6674 62.2775 60.0916C62.2741 60.7147 62.1151 61.255 61.8002 61.7124C61.4886 62.1664 61.0379 62.5194 60.4479 62.7713C59.8613 63.0199 59.1536 63.1442 58.325 63.1442C57.5031 63.1442 56.7872 63.0182 56.1773 62.7663C55.5708 62.5144 55.0968 62.1416 54.7554 61.6477C54.4174 61.1506 54.2401 60.5357 54.2235 59.8033H56.3066C56.3298 60.1446 56.4276 60.4297 56.5999 60.6584C56.7756 60.8838 57.0092 61.0545 57.3009 61.1705C57.5959 61.2831 57.929 61.3395 58.3002 61.3395C58.6648 61.3395 58.9813 61.2865 59.2498 61.1804C59.5215 61.0743 59.732 60.9268 59.8812 60.7379C60.0303 60.549 60.1049 60.3319 60.1049 60.0866C60.1049 59.858 60.0369 59.6657 59.901 59.5099C59.7685 59.3542 59.5729 59.2216 59.3144 59.1122C59.0592 59.0028 58.746 58.9034 58.3748 58.8139L57.2661 58.5355C56.4077 58.3267 55.7299 58.0002 55.2327 57.5561C54.7356 57.112 54.4886 56.5137 54.492 55.7614C54.4886 55.1449 54.6527 54.6063 54.9841 54.1456C55.3189 53.6849 55.7779 53.3253 56.3613 53.0668C56.9446 52.8082 57.6075 52.679 58.3499 52.679C59.1056 52.679 59.7652 52.8082 60.3286 53.0668C60.8954 53.3253 61.3362 53.6849 61.651 54.1456C61.9659 54.6063 62.1283 55.1399 62.1383 55.7464H60.075Z" fill="#8E1D1D"/>
<rect x="80.3333" y="40.6667" width="35.3333" height="35.3333" rx="7" fill="#CCCCCC" stroke="#8E1D1D" stroke-width="2"/>
<path d="M96.661 63H93.0516V52.8182H96.6908C97.715 52.8182 98.5966 53.022 99.3357 53.4297C100.075 53.834 100.643 54.4157 101.041 55.1747C101.442 55.9337 101.643 56.8419 101.643 57.8991C101.643 58.9598 101.442 59.8712 101.041 60.6335C100.643 61.3958 100.071 61.9808 99.3258 62.3885C98.5833 62.7962 97.6951 63 96.661 63ZM95.2043 61.1555H96.5715C97.2079 61.1555 97.7431 61.0429 98.1773 60.8175C98.6148 60.5888 98.9429 60.2358 99.1617 59.7585C99.3838 59.2779 99.4948 58.6581 99.4948 57.8991C99.4948 57.1468 99.3838 56.532 99.1617 56.0547C98.9429 55.5774 98.6165 55.2261 98.1823 55.0007C97.7481 54.7753 97.2128 54.6626 96.5765 54.6626H95.2043V61.1555Z" fill="#8E1D1D"/>
</svg>
